<?xml version="1.0" encoding="UTF-8" standalone="no"?>
<svg
   version="1.1"
   id="Layer_1"
   x="0px"
   y="0px"
   viewBox="0 0 120 40"
   enable-background="new 0 0 120 40"
   xml:space="preserve"
   sodipodi:docname="octoperf-logo-white.svg"
   inkscape:version="1.1.2 (0a00cf5339, 2022-02-04)"
   xmlns:inkscape="http://www.inkscape.org/namespaces/inkscape"
   xmlns:sodipodi="http://sodipodi.sourceforge.net/DTD/sodipodi-0.dtd"
   xmlns="http://www.w3.org/2000/svg"
   xmlns:svg="http://www.w3.org/2000/svg"
   xmlns:rdf="http://www.w3.org/1999/02/22-rdf-syntax-ns#"
   xmlns:cc="http://creativecommons.org/ns#"
   xmlns:dc="http://purl.org/dc/elements/1.1/"><metadata
   id="metadata71"><rdf:RDF><cc:Work
       rdf:about=""><dc:format>image/svg+xml</dc:format><dc:type
         rdf:resource="http://purl.org/dc/dcmitype/StillImage" /></cc:Work></rdf:RDF></metadata><defs
   id="defs69" /><sodipodi:namedview
   pagecolor="#ffffff"
   bordercolor="#666666"
   borderopacity="1"
   objecttolerance="10"
   gridtolerance="10"
   guidetolerance="10"
   inkscape:pageopacity="0"
   inkscape:pageshadow="2"
   inkscape:window-width="3380"
   inkscape:window-height="1371"
   id="namedview67"
   showgrid="false"
   inkscape:zoom="10.333333"
   inkscape:cx="83.612904"
   inkscape:cy="28.935484"
   inkscape:window-x="1140"
   inkscape:window-y="32"
   inkscape:window-maximized="1"
   inkscape:current-layer="g64"
   inkscape:pagecheckerboard="true" />
<g
   id="g64">
	<g
   id="g22"
   transform="matrix(0.81514074,0,0,0.81514074,17.366093,11.49996)">
		<g
   id="g20">
			<path
   fill="#2d97d4"
   d="m 53,22.6 c 0,4 -3.1,7.2 -7,7.2 -3.8,0 -7,-3.2 -7,-7.2 0,-4 3.1,-7.2 7,-7.2 4,0 7,3.1 7,7.2 z m -1.7,0 C 51.3,19.4 49,17 46,17 c -2.9,0 -5.3,2.4 -5.3,5.6 0,3.1 2.4,5.6 5.3,5.6 3,-0.1 5.3,-2.5 5.3,-5.6 z"
   id="path2" />
			<path
   fill="#2d97d4"
   d="m 59.8,29.8 c -2.9,0 -5.2,-2.4 -5.2,-5.3 0,-3 2.3,-5.4 5.2,-5.4 2.3,0 4.1,1.4 4.9,3.4 h -1.8 c -0.6,-1.1 -1.7,-1.8 -3,-1.8 -1.9,0 -3.5,1.7 -3.5,3.8 0,2.1 1.6,3.7 3.5,3.7 1.4,0 2.4,-0.7 3,-1.8 h 1.8 c -0.8,2 -2.6,3.4 -4.9,3.4 z"
   id="path4" />
			<path
   fill="#2d97d4"
   d="m 70.6,29.5 c -2.4,0.3 -4.1,-1.1 -4.1,-3.7 v -8.7 h 1.7 v 2.2 h 2.4 v 1.6 h -2.4 v 4.9 c 0,1.8 1.1,2.3 2.4,2.2 z"
   id="path6" />
			<path
   fill="#2d97d4"
   d="m 82.2,24.4 c 0,2.9 -2.3,5.3 -5.2,5.3 -3,0 -5.2,-2.4 -5.2,-5.3 0,-3 2.3,-5.4 5.2,-5.4 2.9,0 5.2,2.5 5.2,5.4 z m -1.7,0 c 0,-2.1 -1.6,-3.8 -3.5,-3.8 -1.9,0 -3.5,1.7 -3.5,3.8 0,2 1.6,3.7 3.5,3.7 1.9,0 3.5,-1.6 3.5,-3.7 z"
   id="path8" />
			<g
   id="g18">
				<path
   fill="#ffffff"
   d="m 107.7,23.4 v 6.1 h 1.7 v -6.1 c 0,-2 1.3,-2.9 3.3,-2.7 v -1.6 c -2.8,-0.3 -5,1.2 -5,4.3 z"
   id="path10" />
				<path
   fill="#ffffff"
   d="m 116.8,16.8 c 0.4,-0.4 1,-0.5 1.8,-0.5 v -1.5 c -1.2,-0.1 -2.2,0.1 -2.9,0.8 -0.8,0.7 -1.2,1.8 -1.2,3.3 v 10.6 h 1.7 v -8.6 h 2.4 v -1.6 h -2.4 v -0.4 c -0.1,-0.7 0,-1.6 0.6,-2.1 z"
   id="path12" />
				<path
   fill="#ffffff"
   d="m 89.3,15.4 h -3.2 -1.7 v 1.6 3.3 9.3 h 1.7 v -5.1 h 3.3 c 3,0 4.8,-1.8 4.8,-4.5 0,-2.6 -2.2,-4.6 -4.9,-4.6 z m 0.1,7.3 H 86.1 V 21 20.2 17 h 3.2 c 1.9,0 3.2,1.3 3.2,2.9 0,1.7 -1.1,2.8 -3.1,2.8 z"
   id="path14" />
				<path
   fill="#ffffff"
   d="m 100.5,19 c -3,0 -5.2,2.4 -5.2,5.4 0,2.9 2.3,5.3 5.2,5.3 2.1,0 3.8,-1.2 4.7,-2.9 h -2 c -0.6,0.8 -1.6,1.2 -2.6,1.2 -1.6,0 -3,-1.2 -3.4,-2.8 h 6.8 1.2 0.6 c 0,-0.3 0.1,-0.6 0.1,-0.9 -0.1,-2.8 -2.4,-5.3 -5.4,-5.3 z m -3.4,4.7 c 0.3,-1.8 1.7,-3.1 3.4,-3.1 1.7,0 3.2,1.3 3.5,3.1 z"
   id="path16" />
			</g>
		</g>
	</g>
	<g
   id="g62">
		<g
   id="g44">
			<g
   id="g42">
				<path
   fill="#FFFFFF"
   d="M9.2,13.7c2.6-2.6,6.1-3.8,9.5-3.6c0.6-0.5,1.4-0.9,2.1-1.3c-4.5-0.9-9.3,0.4-12.7,3.8      c-4.3,4.3-5.2,10.7-2.7,15.9l1.2-1.2C4.6,22.8,5.5,17.4,9.2,13.7z"
   id="path24" />
				<path
   fill="#FFFFFF"
   d="M31.7,19.7c-0.4,0.8-0.9,1.5-1.4,2.1c0.2,3.4-1,6.8-3.6,9.4c-3.7,3.7-9.2,4.6-13.8,2.6L11.7,35      c5.2,2.6,11.8,1.7,16.1-2.6C31.3,29,32.6,24.2,31.7,19.7z"
   id="path26" />
				<g
   id="g40">
					<circle
   fill="#FFFFFF"
   cx="13.2"
   cy="24.1"
   r="0.9"
   id="circle28" />
					<circle
   fill="#FFFFFF"
   cx="16.3"
   cy="27.2"
   r="0.9"
   id="circle30" />
					
						<rect
   x="0"
   y="29.8"
   transform="matrix(0.7071 -0.7071 0.7071 0.7071 -19.5917 13.7069)"
   fill="#FFFFFF"
   width="13.5"
   height="1.4"
   id="rect32" />
					
						<rect
   x="3.2"
   y="33"
   transform="matrix(0.7071 -0.7071 0.7071 0.7071 -20.9183 16.9103)"
   fill="#FFFFFF"
   width="13.5"
   height="1.4"
   id="rect34" />
					<polygon
   fill="#FFFFFF"
   points="13.6,27.8 12.7,26.8 12.7,26.8 0.4,39 0.4,39.1 1.4,40 1.4,40 13.6,27.8      "
   id="polygon36" />
					<path
   fill="#FFFFFF"
   d="M33,10.6c0-0.5,0-0.9,0-1.4c-0.1-0.5-0.2-0.9-0.5-1.2c-0.3-0.3-0.7-0.4-1.2-0.5c-8.3-0.4-14,5.2-15.6,7       l0,0l-0.1,0.1c-2.1,2.4-2.4,3.7-2.8,5.1L12.7,20l-3,1l-0.5,2.9l-3.7,3.7l-0.1,0.1l-1.2,1.2l1,1l1.2-1.2l0,0l4.1-4.1l0.5-2.5       l2.9-0.9l0,0c0.1,0,0.3-0.1,0.4-0.1c0.4,0,0.9,0,1.4,0.6c0,0,1.2,1.2,0.6,2.5l0.5-0.5c0,0,0,0,0,0l0.9-0.9l0,0L31.4,9.1       c0,0,0.2,0.3,0.2,0.5l0,0.2c0,0.4,0,0.8,0,1.2C31.1,18.3,26,23,24.9,23.8l0,0l0,0c-2.8,2.4-5.4,2.8-5.5,2.8l-0.1,0l-1,2.9       L15.8,30l-4,4l-0.1,0.1l-1.2,1.2l1,1l1.2-1.2l0,0l3.8-3.8l2.9-0.5l1-3l0.2-0.1c1.4-0.4,2.8-0.8,5.2-2.9l0.1-0.1       C27.6,23.4,32.8,18.2,33,10.6L33,10.6z"
   id="path38" />
				</g>
			</g>
		</g>
		<g
   id="g56">
			<g
   id="g54">
				<g
   id="g48">
					<path
   fill="#2D97D4"
   d="M17.1,32.3l3.2-0.6l1-3c1.2-0.3,2.8-0.8,5.3-3l0.1-0.1c0.5-0.5,1.5-1.4,2.6-2.8       c-0.1,2.9-1.2,5.7-3.3,7.7c-2.7,2.7-6.6,3.8-10.3,3.1L17.1,32.3z"
   id="path46" />
				</g>
				<g
   id="g52">
					<path
   fill="#2D97D4"
   d="M6.8,24.7C6.1,21,7.3,17.1,9.9,14.5c2.1-2.1,4.8-3.2,7.8-3.3c-0.9,0.7-1.5,1.3-2,1.8l0,0l-0.3,0.3       l-0.6,0.7c-2.1,2.4-2.6,3.9-3,5.3l-3,1l-0.6,3.2L6.8,24.7z"
   id="path50" />
				</g>
			</g>
		</g>
		<polygon
   fill="#FFFFFF"
   points="18.8,2.4 19.3,0 19.9,2.4 22.3,3 19.9,3.5 19.3,6 18.8,3.5 16.3,3   "
   id="polygon58" />
		<polygon
   fill="#FFFFFF"
   points="13.2,4.7 13.6,3.3 13.9,4.7 15.4,5 13.9,5.4 13.6,6.8 13.2,5.4 11.8,5   "
   id="polygon60" />
	</g>
<path
   id="text5101"
   style="font-style:normal;font-weight:normal;font-size:17.818px;line-height:1.25;font-family:sans-serif;fill:#2d97d4;fill-opacity:1;stroke:none;stroke-width:1.21486"
   d="M 41.509766 4.7167969 L 41.509766 16.800781 C 41.509766 17.926007 41.350257 18.705615 41.03125 19.140625 C 40.712243 19.575635 40.163936 19.792969 39.386719 19.792969 L 38.837891 19.792969 L 38.837891 21.273438 L 39.507812 21.273438 C 40.824442 21.273438 41.77948 20.918553 42.371094 20.210938 C 42.968507 19.503322 43.265625 18.366816 43.265625 16.800781 L 43.265625 4.7167969 L 41.509766 4.7167969 z M 46.763672 4.7167969 L 46.763672 17.705078 L 48.521484 17.705078 L 48.521484 12.486328 L 50.730469 12.486328 C 52.186301 12.486328 53.28688 12.157368 54.029297 11.501953 C 54.777514 10.846538 55.150391 9.877532 55.150391 8.5957031 C 55.150391 7.3254746 54.777514 6.362446 54.029297 5.7070312 C 53.28688 5.0458164 52.186301 4.7167969 50.730469 4.7167969 L 46.763672 4.7167969 z M 67.740234 5.1953125 L 67.740234 7.9609375 L 66.564453 7.9609375 L 66.564453 9.2050781 L 67.740234 9.2050781 L 67.740234 14.494141 C 67.740234 15.712168 67.975502 16.553568 68.445312 17.017578 C 68.915123 17.475788 69.766525 17.705078 71.001953 17.705078 L 72.646484 17.705078 L 72.646484 16.365234 L 71.001953 16.365234 C 70.334938 16.365234 69.89228 16.251596 69.671875 16.025391 C 69.45727 15.799186 69.349609 15.288758 69.349609 14.494141 L 69.349609 9.2050781 L 72.646484 9.2050781 L 72.646484 7.9609375 L 69.349609 7.9609375 L 69.349609 5.1953125 L 67.740234 5.1953125 z M 48.521484 6.1601562 L 50.730469 6.1601562 C 51.548287 6.1601563 52.180343 6.3715124 52.626953 6.7949219 C 53.073563 7.2183314 53.296875 7.8184856 53.296875 8.5957031 C 53.296875 9.3787207 53.073563 9.9828405 52.626953 10.40625 C 52.180343 10.82966 51.548287 11.041016 50.730469 11.041016 L 48.521484 11.041016 L 48.521484 6.1601562 z M 60.884766 7.7265625 C 59.423133 7.7265625 58.258751 8.1970976 57.394531 9.1367188 C 56.536112 10.07054 56.107422 11.334652 56.107422 12.929688 C 56.107422 14.472522 56.560023 15.694789 57.464844 16.599609 C 58.375464 17.50443 59.607674 17.957031 61.162109 17.957031 C 61.782723 17.957031 62.394833 17.893228 62.998047 17.765625 C 63.60126 17.638022 64.189459 17.45259 64.763672 17.208984 L 64.763672 15.695312 C 64.195259 15.996919 63.621029 16.224197 63.041016 16.375 C 62.466803 16.525803 61.872626 16.599609 61.257812 16.599609 C 60.196389 16.599609 59.366945 16.312494 58.769531 15.738281 C 58.177918 15.158268 57.846945 14.318822 57.777344 13.216797 L 65.138672 13.216797 L 65.138672 12.433594 C 65.138672 10.983561 64.755852 9.8371127 63.990234 8.9960938 C 63.230417 8.1492747 62.195595 7.7265625 60.884766 7.7265625 z M 60.902344 9.0839844 C 61.691161 9.0839844 62.323217 9.3451758 62.798828 9.8671875 C 63.280239 10.389199 63.525509 11.087071 63.537109 11.962891 L 57.830078 11.972656 C 57.91128 11.056236 58.218341 10.344455 58.751953 9.8398438 C 59.291365 9.3352324 60.009124 9.0839844 60.902344 9.0839844 z " /><path
   id="text33311"
   style="font-style:normal;font-weight:normal;font-size:16.1981px;line-height:1.25;font-family:sans-serif;fill:#ffffff;fill-opacity:1;stroke:none;stroke-width:1.21486"
   d="M 79.455078 6.0410156 C 78.163238 6.0410156 77.148351 6.3403049 76.410156 6.9414062 C 75.677234 7.5425076 75.310547 8.3661381 75.310547 9.4101562 C 75.310547 10.311808 75.57682 11.015294 76.109375 11.521484 C 76.64193 12.027675 77.503655 12.399442 78.695312 12.636719 L 79.667969 12.826172 C 80.479983 12.989629 81.062737 13.235585 81.416016 13.5625 C 81.774567 13.889415 81.953125 14.341865 81.953125 14.921875 C 81.953125 15.58625 81.706582 16.09848 81.210938 16.457031 C 80.715293 16.815583 80.009854 16.994141 79.097656 16.994141 C 78.496555 16.994141 77.885864 16.901346 77.263672 16.716797 C 76.641479 16.532248 76.005979 16.258356 75.357422 15.894531 L 75.357422 17.541016 C 76.032343 17.788838 76.683081 17.975015 77.310547 18.101562 C 77.943285 18.22811 78.538737 18.291016 79.097656 18.291016 C 80.579318 18.291016 81.702238 17.996806 82.466797 17.40625 C 83.236628 16.815694 83.623047 15.946936 83.623047 14.802734 C 83.623047 13.843081 83.337043 13.07923 82.767578 12.509766 C 82.203387 11.935028 81.326423 11.533372 80.134766 11.306641 L 79.169922 11.109375 C 78.294634 10.945918 77.699182 10.732391 77.382812 10.46875 C 77.071716 10.199836 76.916016 9.8052122 76.916016 9.2832031 C 76.916016 8.6610105 77.14986 8.1812104 77.619141 7.84375 C 78.093694 7.5062896 78.766704 7.3378906 79.636719 7.3378906 C 80.137637 7.3378906 80.655532 7.4084151 81.193359 7.5507812 C 81.731187 7.6931474 82.303782 7.9092137 82.910156 8.1992188 L 82.910156 6.640625 C 82.309055 6.4402579 81.721222 6.2896367 81.146484 6.1894531 C 80.571747 6.0892696 80.008724 6.0410156 79.455078 6.0410156 z M 86.027344 6.6894531 L 86.027344 9.203125 L 84.958984 9.203125 L 84.958984 10.333984 L 86.027344 10.333984 L 86.027344 15.144531 C 86.027344 16.251823 86.24087 17.015675 86.667969 17.4375 C 87.095067 17.854053 87.869077 18.0625 88.992188 18.0625 L 90.488281 18.0625 L 90.488281 16.84375 L 88.992188 16.84375 C 88.385813 16.84375 87.98357 16.740796 87.783203 16.535156 C 87.588109 16.329516 87.490234 15.866907 87.490234 15.144531 L 87.490234 10.333984 L 90.488281 10.333984 L 90.488281 9.203125 L 87.490234 9.203125 L 87.490234 6.6894531 L 86.027344 6.6894531 z M 95.833984 8.9902344 C 94.563235 8.9902344 93.566126 9.4020497 92.84375 10.224609 C 92.126647 11.047169 91.769531 12.185327 91.769531 13.640625 C 91.769531 15.09065 92.126647 16.230761 92.84375 17.058594 C 93.566126 17.881153 94.563235 18.291016 95.833984 18.291016 C 97.099461 18.291016 98.09403 17.881153 98.816406 17.058594 C 99.538782 16.230761 99.900391 15.09065 99.900391 13.640625 C 99.900391 12.185327 99.538782 11.047169 98.816406 10.224609 C 98.09403 9.4020497 97.099461 8.9902344 95.833984 8.9902344 z M 106.70117 8.9902344 C 105.99989 8.9902344 105.40443 9.1211247 104.91406 9.3847656 C 104.42369 9.6431337 104.02653 10.042251 103.7207 10.580078 L 103.7207 9.203125 L 102.25586 9.203125 L 102.25586 18.0625 L 103.7207 18.0625 L 103.7207 13.396484 C 103.7207 12.394649 103.93931 11.626305 104.37695 11.09375 C 104.81987 10.555922 105.45283 10.287109 106.27539 10.287109 C 106.50739 10.287109 106.71643 10.31192 106.90625 10.359375 C 107.10134 10.401558 107.28186 10.469542 107.44531 10.564453 L 107.4375 9.0683594 C 107.28986 9.0419953 107.15448 9.0242175 107.0332 9.0136719 C 106.91193 8.9978534 106.80136 8.9902344 106.70117 8.9902344 z M 112.32422 8.9902344 C 110.99547 8.9902344 109.93995 9.4172877 109.1543 10.271484 C 108.37392 11.120408 107.98242 12.270678 107.98242 13.720703 C 107.98242 15.123273 108.39424 16.236034 109.2168 17.058594 C 110.04463 17.881153 111.16501 18.291016 112.57812 18.291016 C 113.14232 18.291016 113.69772 18.23319 114.24609 18.117188 C 114.79447 18.001185 115.32955 17.832787 115.85156 17.611328 L 115.85156 16.234375 C 115.33483 16.508562 114.81439 16.714469 114.28711 16.851562 C 113.7651 16.988656 113.22493 17.058594 112.66602 17.058594 C 111.70109 17.058594 110.94544 16.7974 110.40234 16.275391 C 109.86452 15.748109 109.56523 14.982304 109.50195 13.980469 L 116.19336 13.980469 L 116.19336 13.269531 C 116.19336 11.951327 115.84445 10.90909 115.14844 10.144531 C 114.4577 9.3746997 113.51588 8.9902344 112.32422 8.9902344 z M 95.833984 10.224609 C 96.609089 10.224609 97.224272 10.533471 97.677734 11.150391 C 98.131197 11.762038 98.357422 12.591334 98.357422 13.640625 C 98.357422 14.695189 98.131197 15.528978 97.677734 16.140625 C 97.224272 16.752272 96.609089 17.058594 95.833984 17.058594 C 95.048334 17.058594 94.430025 16.754812 93.976562 16.148438 C 93.528373 15.536791 93.302734 14.700462 93.302734 13.640625 C 93.302734 12.580788 93.530913 11.746999 93.984375 11.140625 C 94.437837 10.528978 95.053607 10.224609 95.833984 10.224609 z M 112.3418 10.224609 C 113.0589 10.224609 113.63208 10.460993 114.06445 10.935547 C 114.5021 11.410101 114.72774 12.045601 114.73828 12.841797 L 109.54883 12.849609 C 109.62265 12.016504 109.90162 11.370845 110.38672 10.912109 C 110.87709 10.453374 111.52978 10.224609 112.3418 10.224609 z " /><path
   id="text40869"
   style="font-style:normal;font-weight:normal;font-size:5.33333px;line-height:1.25;font-family:sans-serif;fill:#ffffff;fill-opacity:1;stroke:none"
   d="M 41.291016 30.648438 L 41.291016 34.535156 L 42.685547 34.535156 C 43.121311 34.535156 43.457248 34.441189 43.693359 34.251953 C 43.92947 34.062717 44.048828 33.794488 44.048828 33.447266 C 44.048828 33.183377 43.976128 32.96441 43.832031 32.789062 C 43.68967 32.611979 43.489149 32.495009 43.230469 32.439453 C 43.445746 32.404731 43.609592 32.316406 43.720703 32.175781 C 43.831814 32.035156 43.886719 31.847222 43.886719 31.609375 C 43.886719 31.302084 43.777561 31.065104 43.560547 30.898438 C 43.343533 30.731771 43.035807 30.648438 42.634766 30.648438 L 41.291016 30.648438 z M 41.816406 31.080078 L 42.595703 31.080078 C 42.852647 31.080078 43.042969 31.12934 43.167969 31.226562 C 43.294705 31.323785 43.357422 31.469835 43.357422 31.666016 C 43.357422 31.863932 43.294705 32.012153 43.167969 32.109375 C 43.042969 32.204861 42.852647 32.251953 42.595703 32.251953 L 41.816406 32.251953 L 41.816406 31.080078 z M 44.583984 31.619141 L 45.763672 34.488281 L 45.677734 34.707031 C 45.589193 34.93967 45.508463 35.087891 45.435547 35.150391 C 45.36263 35.212891 45.260851 35.244141 45.128906 35.244141 L 44.847656 35.244141 L 44.847656 35.644531 L 45.230469 35.644531 C 45.445746 35.644531 45.617622 35.592231 45.746094 35.486328 C 45.874566 35.380425 46.007162 35.153863 46.142578 34.806641 L 47.423828 31.619141 L 46.916016 31.619141 L 46.003906 33.900391 L 45.091797 31.619141 L 44.583984 31.619141 z M 41.816406 32.679688 L 42.660156 32.679688 C 42.943142 32.679688 43.151693 32.737196 43.287109 32.853516 C 43.424262 32.968099 43.494141 33.14757 43.494141 33.390625 C 43.494141 33.631944 43.424262 33.811632 43.287109 33.929688 C 43.151693 34.046007 42.943142 34.103516 42.660156 34.103516 L 41.816406 34.103516 L 41.816406 32.679688 z " /></g>
</svg>
